<svg width="36" height="32" viewBox="0 0 36 32" fill="none" xmlns="http://www.w3.org/2000/svg">
<path fill-rule="evenodd" clip-rule="evenodd" d="M6.76414e-06 3.375C6.76414e-06 2.47989 0.355586 1.62145 0.988521 0.988515C1.62146 0.355579 2.4799 0 3.37501 0H28.125C29.0201 0 29.8786 0.355579 30.5115 0.988515C31.1444 1.62145 31.5 2.47989 31.5 3.375V27.063C31.5 27.738 31.3875 28.5345 30.9645 29.25H32.625C32.9234 29.25 33.2095 29.1315 33.4205 28.9205C33.6315 28.7095 33.75 28.4234 33.75 28.125V7.875C33.75 7.57663 33.8685 7.29048 34.0795 7.0795C34.2905 6.86853 34.5766 6.75 34.875 6.75C35.1734 6.75 35.4595 6.86853 35.6705 7.0795C35.8815 7.29048 36 7.57663 36 7.875V28.125C36 29.0201 35.6444 29.8785 35.0115 30.5115C34.3785 31.1444 33.5201 31.5 32.625 31.5H3.36826C2.92536 31.5 2.48682 31.4126 2.07772 31.243C1.66863 31.0733 1.29701 30.8246 0.984155 30.5111C0.671295 30.1976 0.423332 29.8255 0.25446 29.416C0.0855866 29.0066 -0.000880798 28.5679 6.76414e-06 28.125V3.375ZM27 29.25C27.8325 29.25 28.4715 28.7752 28.9192 28.2577C29.1262 28.0192 29.25 27.63 29.25 27.063V3.375C29.25 3.07663 29.1315 2.79048 28.9205 2.5795C28.7095 2.36853 28.4234 2.25 28.125 2.25H3.37501C3.07664 2.25 2.79049 2.36853 2.57951 2.5795C2.36853 2.79048 2.25001 3.07663 2.25001 3.375V28.125C2.25001 28.7505 2.75176 29.25 3.36826 29.25H27Z" fill="black"/>
<path d="M4.5 4.5H27V9H4.5V4.5ZM4.5 11.25H13.5V18H4.5V11.25ZM4.5 20.25H13.5V22.5H4.5V20.25ZM4.5 24.75H13.5V27H4.5V24.75ZM15.75 11.25H20.25V13.5H15.75V11.25ZM22.5 11.25H27V13.5H22.5V11.25ZM15.75 15.75H20.25V18H15.75V15.75ZM22.5 15.75H27V18H22.5V15.75ZM15.75 20.25H20.25V22.5H15.75V20.25ZM22.5 20.25H27V22.5H22.5V20.25ZM15.75 24.75H20.25V27H15.75V24.75ZM22.5 24.75H27V27H22.5V24.75Z" fill="black"/>
</svg>
