<svg width="38" height="36" viewBox="0 0 38 36" fill="none" xmlns="http://www.w3.org/2000/svg">
<g filter="url(#filter0_d)">
<path d="M4 1C4 0.734783 4.10536 0.48043 4.29289 0.292893C4.48043 0.105357 4.73478 0 5 0H8C8.22306 6.16229e-05 8.4397 0.0747014 8.61546 0.212049C8.79122 0.349398 8.91602 0.541568 8.97 0.758L9.78 4H33C33.1519 4.00004 33.3018 4.03469 33.4383 4.10131C33.5748 4.16792 33.6943 4.26477 33.7878 4.38448C33.8813 4.50419 33.9463 4.64363 33.9779 4.79222C34.0095 4.9408 34.0068 5.09462 33.97 5.242L30.97 17.242C30.916 17.4584 30.7912 17.6506 30.6155 17.7879C30.4397 17.9253 30.2231 17.9999 30 18H12C11.7769 17.9999 11.5603 17.9253 11.3845 17.7879C11.2088 17.6506 11.084 17.4584 11.03 17.242L7.22 2H5C4.73478 2 4.48043 1.89464 4.29289 1.70711C4.10536 1.51957 4 1.26522 4 1ZM10 24C10 22.9391 10.4214 21.9217 11.1716 21.1716C11.9217 20.4214 12.9391 20 14 20C15.0609 20 16.0783 20.4214 16.8284 21.1716C17.5786 21.9217 18 22.9391 18 24C18 25.0609 17.5786 26.0783 16.8284 26.8284C16.0783 27.5786 15.0609 28 14 28C12.9391 28 11.9217 27.5786 11.1716 26.8284C10.4214 26.0783 10 25.0609 10 24ZM24 24C24 22.9391 24.4214 21.9217 25.1716 21.1716C25.9217 20.4214 26.9391 20 28 20C29.0609 20 30.0783 20.4214 30.8284 21.1716C31.5786 21.9217 32 22.9391 32 24C32 25.0609 31.5786 26.0783 30.8284 26.8284C30.0783 27.5786 29.0609 28 28 28C26.9391 28 25.9217 27.5786 25.1716 26.8284C24.4214 26.0783 24 25.0609 24 24Z" fill="black"/>
</g>
<defs>
<filter id="filter0_d" x="0" y="0" width="37.9997" height="36" filterUnits="userSpaceOnUse" color-interpolation-filters="sRGB">
<feFlood flood-opacity="0" result="BackgroundImageFix"/>
<feColorMatrix in="SourceAlpha" type="matrix" values="0 0 0 0 0 0 0 0 0 0 0 0 0 0 0 0 0 0 127 0"/>
<feOffset dy="4"/>
<feGaussianBlur stdDeviation="2"/>
<feColorMatrix type="matrix" values="0 0 0 0 0 0 0 0 0 0 0 0 0 0 0 0 0 0 0.25 0"/>
<feBlend mode="normal" in2="BackgroundImageFix" result="effect1_dropShadow"/>
<feBlend mode="normal" in="SourceGraphic" in2="effect1_dropShadow" result="shape"/>
</filter>
</defs>
</svg>
