<svg width="26" height="24" viewBox="0 0 26 24" fill="none" xmlns="http://www.w3.org/2000/svg">
<path d="M0 0.857143C0 0.629814 0.0903059 0.411797 0.251051 0.251051C0.411797 0.090306 0.629814 0 0.857143 0H3.42857C3.61977 5.28197e-05 3.80546 0.0640297 3.95611 0.181757C4.10676 0.299484 4.21373 0.464201 4.26 0.649714L4.95429 3.42857H24.8571C24.9873 3.42861 25.1158 3.4583 25.2328 3.51541C25.3498 3.57251 25.4523 3.65551 25.5324 3.75813C25.6126 3.86074 25.6683 3.98026 25.6953 4.10761C25.7224 4.23497 25.7201 4.36681 25.6886 4.49314L23.1171 14.7789C23.0709 14.9644 22.9639 15.1291 22.8133 15.2468C22.6626 15.3645 22.4769 15.4285 22.2857 15.4286H6.85714C6.66595 15.4285 6.48026 15.3645 6.3296 15.2468C6.17895 15.1291 6.07198 14.9644 6.02571 14.7789L2.76 1.71429H0.857143C0.629814 1.71429 0.411797 1.62398 0.251051 1.46323C0.0903059 1.30249 0 1.08447 0 0.857143ZM5.38286 5.14286L7.52571 13.7143H21.6171L23.76 5.14286H5.38286ZM8.57143 18.8571C8.11677 18.8571 7.68074 19.0378 7.35925 19.3592C7.03775 19.6807 6.85714 20.1168 6.85714 20.5714C6.85714 21.0261 7.03775 21.4621 7.35925 21.7836C7.68074 22.1051 8.11677 22.2857 8.57143 22.2857C9.02609 22.2857 9.46212 22.1051 9.78361 21.7836C10.1051 21.4621 10.2857 21.0261 10.2857 20.5714C10.2857 20.1168 10.1051 19.6807 9.78361 19.3592C9.46212 19.0378 9.02609 18.8571 8.57143 18.8571ZM5.14286 20.5714C5.14286 19.6621 5.50408 18.79 6.14706 18.1471C6.79004 17.5041 7.66211 17.1429 8.57143 17.1429C9.48074 17.1429 10.3528 17.5041 10.9958 18.1471C11.6388 18.79 12 19.6621 12 20.5714C12 21.4807 11.6388 22.3528 10.9958 22.9958C10.3528 23.6388 9.48074 24 8.57143 24C7.66211 24 6.79004 23.6388 6.14706 22.9958C5.50408 22.3528 5.14286 21.4807 5.14286 20.5714ZM20.5714 18.8571C20.1168 18.8571 19.6807 19.0378 19.3592 19.3592C19.0378 19.6807 18.8571 20.1168 18.8571 20.5714C18.8571 21.0261 19.0378 21.4621 19.3592 21.7836C19.6807 22.1051 20.1168 22.2857 20.5714 22.2857C21.0261 22.2857 21.4621 22.1051 21.7836 21.7836C22.1051 21.4621 22.2857 21.0261 22.2857 20.5714C22.2857 20.1168 22.1051 19.6807 21.7836 19.3592C21.4621 19.0378 21.0261 18.8571 20.5714 18.8571ZM17.1429 20.5714C17.1429 19.6621 17.5041 18.79 18.1471 18.1471C18.79 17.5041 19.6621 17.1429 20.5714 17.1429C21.4807 17.1429 22.3528 17.5041 22.9958 18.1471C23.6388 18.79 24 19.6621 24 20.5714C24 21.4807 23.6388 22.3528 22.9958 22.9958C22.3528 23.6388 21.4807 24 20.5714 24C19.6621 24 18.79 23.6388 18.1471 22.9958C17.5041 22.3528 17.1429 21.4807 17.1429 20.5714Z" fill="black"/>
</svg>
