<svg width="25" height="25" viewBox="0 0 25 25" fill="none" xmlns="http://www.w3.org/2000/svg">
<path d="M16.378 10.7509L16.0611 10.6039L15.814 10.8509L12.9689 13.696L12.6153 14.0496L12.9689 14.4031L21.2509 22.6851L20.1882 23.7478L11.9062 15.4658L11.5532 15.1128L11.1997 15.4652L3.90511 22.7359L2.84185 21.6726L14.7388 9.77569L14.9858 9.52862L14.8387 9.21167C14.0595 7.53251 14.5796 5.05251 16.4705 3.16129C17.6045 2.03344 18.968 1.37652 20.2401 1.20853C21.5121 1.04056 22.6625 1.36133 23.4454 2.14426C24.2348 2.93368 24.5552 4.08724 24.3859 5.35842C24.2165 6.63037 23.5567 7.99085 22.4287 9.11879C20.5375 11.0101 18.0573 11.5302 16.378 10.7509ZM2.41794 2.85165L10.5023 10.9245L7.65707 13.7697L2.75301 8.87731C2.75276 8.87705 2.75251 8.8768 2.75226 8.87655C1.10763 7.22062 0.997807 4.6235 2.41794 2.85165Z" stroke="black"/>
</svg>
