<svg width="34" height="33" viewBox="0 0 34 33" fill="none" xmlns="http://www.w3.org/2000/svg">
<g filter="url(#filter0_d)">
<path d="M11.2884 13.8787L15.1365 10.0305L5.59093 0.498567C3.46969 2.6198 3.46969 6.06001 5.59093 8.19485L11.2884 13.8787V13.8787ZM20.5076 11.4175C22.588 12.3829 25.5115 11.703 27.6735 9.54102C30.2707 6.94386 30.7738 3.2181 28.775 1.21924C26.7897 -0.766016 23.0639 -0.276499 20.4532 2.32066C18.2912 4.48269 17.6113 7.40618 18.5767 9.48663L5.30538 22.758L7.22265 24.6752L16.5914 15.3336L25.9466 24.6888L27.8639 22.7716L18.5087 13.4164L20.5076 11.4175V11.4175Z" fill="black"/>
</g>
<defs>
<filter id="filter0_d" x="0" y="0" width="34" height="32.6888" filterUnits="userSpaceOnUse" color-interpolation-filters="sRGB">
<feFlood flood-opacity="0" result="BackgroundImageFix"/>
<feColorMatrix in="SourceAlpha" type="matrix" values="0 0 0 0 0 0 0 0 0 0 0 0 0 0 0 0 0 0 127 0"/>
<feOffset dy="4"/>
<feGaussianBlur stdDeviation="2"/>
<feColorMatrix type="matrix" values="0 0 0 0 0 0 0 0 0 0 0 0 0 0 0 0 0 0 0.25 0"/>
<feBlend mode="normal" in2="BackgroundImageFix" result="effect1_dropShadow"/>
<feBlend mode="normal" in="SourceGraphic" in2="effect1_dropShadow" result="shape"/>
</filter>
</defs>
</svg>
