<svg width="24" height="24" viewBox="0 0 24 24" fill="none" xmlns="http://www.w3.org/2000/svg">
<path fill-rule="evenodd" clip-rule="evenodd" d="M20.8 1.5H3.2C2.77565 1.5 2.36869 1.65804 2.06863 1.93934C1.76857 2.22064 1.6 2.60218 1.6 3V21C1.6 21.3978 1.76857 21.7794 2.06863 22.0607C2.36869 22.342 2.77565 22.5 3.2 22.5H20.8C21.2243 22.5 21.6313 22.342 21.9314 22.0607C22.2314 21.7794 22.4 21.3978 22.4 21V3C22.4 2.60218 22.2314 2.22064 21.9314 1.93934C21.6313 1.65804 21.2243 1.5 20.8 1.5ZM3.2 0C2.35131 0 1.53737 0.316071 0.937258 0.87868C0.337142 1.44129 0 2.20435 0 3V21C0 21.7956 0.337142 22.5587 0.937258 23.1213C1.53737 23.6839 2.35131 24 3.2 24H20.8C21.6487 24 22.4626 23.6839 23.0627 23.1213C23.6629 22.5587 24 21.7956 24 21V3C24 2.20435 23.6629 1.44129 23.0627 0.87868C22.4626 0.316071 21.6487 0 20.8 0L3.2 0Z" fill="black"/>
<path d="M9.60001 4.5C9.60001 4.10218 9.76858 3.72064 10.0686 3.43934C10.3687 3.15804 10.7757 3 11.2 3H12.8C13.2244 3 13.6313 3.15804 13.9314 3.43934C14.2314 3.72064 14.4 4.10218 14.4 4.5V9C14.4 9.39782 14.2314 9.77936 13.9314 10.0607C13.6313 10.342 13.2244 10.5 12.8 10.5H11.2C10.7757 10.5 10.3687 10.342 10.0686 10.0607C9.76858 9.77936 9.60001 9.39782 9.60001 9V4.5ZM3.20001 4.5C3.20001 4.10218 3.36858 3.72064 3.66864 3.43934C3.9687 3.15804 4.37567 3 4.80001 3H6.40001C6.82436 3 7.23133 3.15804 7.53138 3.43934C7.83144 3.72064 8.00001 4.10218 8.00001 4.5V15C8.00001 15.3978 7.83144 15.7794 7.53138 16.0607C7.23133 16.342 6.82436 16.5 6.40001 16.5H4.80001C4.37567 16.5 3.9687 16.342 3.66864 16.0607C3.36858 15.7794 3.20001 15.3978 3.20001 15V4.5ZM16 4.5C16 4.10218 16.1686 3.72064 16.4686 3.43934C16.7687 3.15804 17.1757 3 17.6 3H19.2C19.6244 3 20.0313 3.15804 20.3314 3.43934C20.6314 3.72064 20.8 4.10218 20.8 4.5V19.5C20.8 19.8978 20.6314 20.2794 20.3314 20.5607C20.0313 20.842 19.6244 21 19.2 21H17.6C17.1757 21 16.7687 20.842 16.4686 20.5607C16.1686 20.2794 16 19.8978 16 19.5V4.5Z" fill="black"/>
</svg>
