<svg width="38" height="38" viewBox="0 0 38 38" fill="none" xmlns="http://www.w3.org/2000/svg">
<g filter="url(#filter0_d)">
<path d="M8 0C6.93913 0 5.92172 0.395088 5.17157 1.09835C4.42143 1.80161 4 2.75544 4 3.75V26.25C4 27.2446 4.42143 28.1984 5.17157 28.9016C5.92172 29.6049 6.93913 30 8 30H30C31.0609 30 32.0783 29.6049 32.8284 28.9016C33.5786 28.1984 34 27.2446 34 26.25V3.75C34 2.75544 33.5786 1.80161 32.8284 1.09835C32.0783 0.395088 31.0609 0 30 0L8 0ZM18 3.75H20C20.5304 3.75 21.0391 3.94754 21.4142 4.29917C21.7893 4.65081 22 5.12772 22 5.625V11.25C22 11.7473 21.7893 12.2242 21.4142 12.5758C21.0391 12.9275 20.5304 13.125 20 13.125H18C17.4696 13.125 16.9609 12.9275 16.5858 12.5758C16.2107 12.2242 16 11.7473 16 11.25V5.625C16 5.12772 16.2107 4.65081 16.5858 4.29917C16.9609 3.94754 17.4696 3.75 18 3.75ZM8 5.625C8 5.12772 8.21071 4.65081 8.58579 4.29917C8.96086 3.94754 9.46957 3.75 10 3.75H12C12.5304 3.75 13.0391 3.94754 13.4142 4.29917C13.7893 4.65081 14 5.12772 14 5.625V18.75C14 19.2473 13.7893 19.7242 13.4142 20.0758C13.0391 20.4275 12.5304 20.625 12 20.625H10C9.46957 20.625 8.96086 20.4275 8.58579 20.0758C8.21071 19.7242 8 19.2473 8 18.75V5.625ZM26 3.75H28C28.5304 3.75 29.0391 3.94754 29.4142 4.29917C29.7893 4.65081 30 5.12772 30 5.625V24.375C30 24.8723 29.7893 25.3492 29.4142 25.7008C29.0391 26.0525 28.5304 26.25 28 26.25H26C25.4696 26.25 24.9609 26.0525 24.5858 25.7008C24.2107 25.3492 24 24.8723 24 24.375V5.625C24 5.12772 24.2107 4.65081 24.5858 4.29917C24.9609 3.94754 25.4696 3.75 26 3.75V3.75Z" fill="black"/>
</g>
<defs>
<filter id="filter0_d" x="0" y="0" width="38" height="38" filterUnits="userSpaceOnUse" color-interpolation-filters="sRGB">
<feFlood flood-opacity="0" result="BackgroundImageFix"/>
<feColorMatrix in="SourceAlpha" type="matrix" values="0 0 0 0 0 0 0 0 0 0 0 0 0 0 0 0 0 0 127 0"/>
<feOffset dy="4"/>
<feGaussianBlur stdDeviation="2"/>
<feColorMatrix type="matrix" values="0 0 0 0 0 0 0 0 0 0 0 0 0 0 0 0 0 0 0.25 0"/>
<feBlend mode="normal" in2="BackgroundImageFix" result="effect1_dropShadow"/>
<feBlend mode="normal" in="SourceGraphic" in2="effect1_dropShadow" result="shape"/>
</filter>
</defs>
</svg>
