<svg width="36" height="39" viewBox="0 0 36 39" fill="none" xmlns="http://www.w3.org/2000/svg">
<g filter="url(#filter0_d)">
<path d="M10.5471 14.869L6.7892 18.7198C5.51902 20.0214 4.81791 21.7742 4.84011 23.5927C4.8623 25.4112 5.60598 27.1464 6.90754 28.4165C8.20911 29.6867 9.96193 30.3878 11.7804 30.3656C13.5989 30.3434 15.3341 29.5998 16.6043 28.2982L21.3935 23.3907C22.1603 22.6057 22.7275 21.6482 23.0475 20.5986C23.3675 19.549 23.431 18.4379 23.2325 17.3587C23.034 16.2795 22.5795 15.2637 21.907 14.3965C21.2345 13.5294 20.3638 12.8364 19.3679 12.3756L18.0429 13.7334C17.9056 13.874 17.7879 14.0274 17.6945 14.1918C18.4619 14.402 19.1611 14.8089 19.723 15.3722C20.2849 15.9355 20.6901 16.6356 20.8985 17.4035C21.1068 18.1714 21.1112 18.9803 20.9111 19.7504C20.711 20.5204 20.3134 21.2249 19.7576 21.7943L14.9684 26.7018C14.1217 27.5695 12.9649 28.0653 11.7525 28.0801C10.5402 28.0949 9.37165 27.6275 8.50394 26.7807C7.63624 25.9339 7.14045 24.7771 7.12565 23.5648C7.11086 22.3525 7.57826 21.1839 8.42504 20.3162L10.8755 17.8052C10.6085 16.8483 10.4977 15.8556 10.5487 14.8674L10.5471 14.869Z" fill="black"/>
<path d="M14.7712 10.5406C14.0044 11.3255 13.4372 12.283 13.1172 13.3326C12.7972 14.3822 12.7337 15.4933 12.9322 16.5725C13.1306 17.6517 13.5852 18.6676 14.2577 19.5347C14.9302 20.4018 15.8009 21.0948 16.7968 21.5556L18.5496 19.7594C17.7721 19.5612 17.0603 19.1618 16.4861 18.6014C15.9118 18.041 15.4951 17.3392 15.278 16.5667C15.0608 15.7942 15.0508 14.9781 15.249 14.2006C15.4472 13.423 15.8466 12.7113 16.407 12.137L21.1962 7.22942C22.043 6.36171 23.1998 5.86593 24.4121 5.85113C25.6245 5.83633 26.793 6.30374 27.6607 7.15052C28.5284 7.9973 29.0242 9.1541 29.039 10.3664C29.0538 11.5788 28.5864 12.7473 27.7396 13.615L25.2892 16.126C25.5559 17.0813 25.6663 18.0734 25.616 19.0638L29.3755 15.2114C30.0044 14.5669 30.5002 13.8049 30.8347 12.9688C31.1691 12.1327 31.3356 11.239 31.3246 10.3385C31.3136 9.43811 31.1253 8.54866 30.7706 7.72098C30.4159 6.8933 29.9016 6.1436 29.2571 5.51467C28.6127 4.88575 27.8506 4.38992 27.0145 4.05549C26.1785 3.72107 25.2847 3.5546 24.3843 3.56559C23.4838 3.57658 22.5944 3.76481 21.7667 4.11954C20.939 4.47427 20.1893 4.98855 19.5604 5.63302L14.7712 10.5406Z" fill="black"/>
</g>
<defs>
<filter id="filter0_d" x="-2" y="0.725464" width="40.1647" height="40.4803" filterUnits="userSpaceOnUse" color-interpolation-filters="sRGB">
<feFlood flood-opacity="0" result="BackgroundImageFix"/>
<feColorMatrix in="SourceAlpha" type="matrix" values="0 0 0 0 0 0 0 0 0 0 0 0 0 0 0 0 0 0 127 0"/>
<feOffset dy="4"/>
<feGaussianBlur stdDeviation="2"/>
<feColorMatrix type="matrix" values="0 0 0 0 0 0 0 0 0 0 0 0 0 0 0 0 0 0 0.25 0"/>
<feBlend mode="normal" in2="BackgroundImageFix" result="effect1_dropShadow"/>
<feBlend mode="normal" in="SourceGraphic" in2="effect1_dropShadow" result="shape"/>
</filter>
</defs>
</svg>
