<svg width="27" height="27" viewBox="0 0 27 27" fill="none" xmlns="http://www.w3.org/2000/svg">
<path d="M15.3506 18.718L15.3505 18.7181L11.049 23.1215C9.95455 24.242 8.45937 24.8822 6.89241 24.9013C5.32546 24.9204 3.81508 24.3168 2.69355 23.2234C1.57202 22.13 0.931202 20.6363 0.912078 19.0708C0.892953 17.5054 1.49708 15.9965 2.59156 14.876L5.53064 11.8673C5.54631 12.5213 5.63807 13.1728 5.80405 13.8083L3.7028 15.9594C2.89592 16.7854 2.45055 17.8978 2.46465 19.0519C2.47874 20.206 2.95116 21.3072 3.77797 22.1133C4.60478 22.9193 5.71826 23.3643 6.87345 23.3502C8.02864 23.3361 9.13092 22.8642 9.93779 22.0381L14.2392 17.6347C14.2392 17.6347 14.2392 17.6347 14.2392 17.6347C14.7688 17.0927 15.1477 16.4221 15.3383 15.6891C15.529 14.956 15.5248 14.1859 15.3263 13.455C15.1277 12.724 14.7416 12.0575 14.2062 11.5213C13.7533 11.0677 13.2068 10.7207 12.6066 10.5034C12.6359 10.4688 12.6667 10.435 12.6991 10.4018L13.7637 9.31194C14.5558 9.70708 15.2496 10.2754 15.7931 10.9755C16.3725 11.7219 16.7642 12.5964 16.9352 13.5254C17.1062 14.4545 17.0516 15.4109 16.7758 16.3145C16.5001 17.218 16.0113 18.0423 15.3506 18.718Z" stroke="black" stroke-width="0.5"/>
<path d="M9.76057 7.53707L9.76066 7.53697L14.0621 3.13352C14.604 2.57873 15.25 2.13602 15.9632 1.83065C16.6764 1.52528 17.4428 1.36324 18.2187 1.35378C18.9946 1.34432 19.7647 1.48763 20.4852 1.77552C21.2056 2.0634 21.8623 2.49024 22.4176 3.03164C22.9729 3.57305 23.4161 4.21843 23.7217 4.93093C24.0274 5.64343 24.1896 6.40911 24.1991 7.18423C24.2085 7.95935 24.0651 8.72875 23.7769 9.44849C23.4887 10.1682 23.0615 10.8242 22.5196 11.379L19.5802 14.388C19.5645 13.7331 19.473 13.0816 19.3071 12.4467L21.4083 10.2956C22.2152 9.46961 22.6606 8.35722 22.6465 7.20315C22.6324 6.04908 22.16 4.94788 21.3332 4.14179C20.5063 3.3357 19.3929 2.89076 18.2377 2.90484C17.0825 2.91893 15.9802 3.39089 15.1733 4.2169L10.8719 8.62036C10.3379 9.16707 9.95731 9.84458 9.76845 10.5848C9.57959 11.325 9.5891 12.1018 9.796 12.8372C10.0029 13.5726 10.3999 14.2406 10.9472 14.7741C11.3934 15.2092 11.9267 15.5423 12.5102 15.7528L11.3474 16.9431C10.5553 16.548 9.86156 15.9797 9.31808 15.2796C8.73861 14.5331 8.34693 13.6587 8.17592 12.7296C8.00491 11.8006 8.05957 10.8441 8.33532 9.94056C8.61106 9.03701 9.09983 8.21276 9.76057 7.53707Z" stroke="black" stroke-width="0.5"/>
</svg>
