<svg width="33" height="33" viewBox="0 0 33 33" fill="none" xmlns="http://www.w3.org/2000/svg">
<path d="M8.54712 14.1435L4.7892 17.9943C3.51902 19.2959 2.81791 21.0487 2.84011 22.8672C2.8623 24.6857 3.60598 26.4209 4.90754 27.6911C6.20911 28.9612 7.96193 29.6624 9.78043 29.6402C11.5989 29.618 13.3341 28.8743 14.6043 27.5727L19.3935 22.6652C20.1603 21.8802 20.7275 20.9228 21.0475 19.8731C21.3675 18.8235 21.431 17.7124 21.2325 16.6332C21.034 15.554 20.5795 14.5382 19.907 13.6711C19.2345 12.804 18.3638 12.1109 17.3679 11.6501L16.0429 13.0079C15.9056 13.1486 15.7879 13.3019 15.6945 13.4663C16.4619 13.6766 17.1611 14.0834 17.723 14.6467C18.2849 15.21 18.6901 15.9102 18.8985 16.678C19.1068 17.4459 19.1112 18.2548 18.9111 19.0249C18.711 19.795 18.3134 20.4995 17.7576 21.0688L12.9684 25.9763C12.1217 26.844 10.9649 27.3398 9.75253 27.3546C8.5402 27.3694 7.37165 26.902 6.50394 26.0552C5.63624 25.2084 5.14045 24.0516 5.12565 22.8393C5.11086 21.627 5.57826 20.4584 6.42504 19.5907L8.87552 17.0797C8.60845 16.1228 8.49774 15.1301 8.54871 14.1419L8.54712 14.1435Z" fill="black"/>
<path d="M12.7712 9.81509C12.0044 10.6 11.4372 11.5575 11.1172 12.6071C10.7972 13.6567 10.7337 14.7678 10.9322 15.847C11.1306 16.9263 11.5852 17.9421 12.2577 18.8092C12.9302 19.6763 13.8009 20.3694 14.7968 20.8301L16.5496 19.034C15.7721 18.8358 15.0603 18.4364 14.4861 17.8759C13.9118 17.3155 13.4951 16.6137 13.278 15.8412C13.0608 15.0687 13.0508 14.2527 13.249 13.4751C13.4472 12.6975 13.8466 11.9858 14.407 11.4115L19.1962 6.50394C20.043 5.63624 21.1998 5.14045 22.4121 5.12565C23.6245 5.11086 24.793 5.57826 25.6607 6.42504C26.5284 7.27183 27.0242 8.42862 27.039 9.64095C27.0538 10.8533 26.5864 12.0218 25.7396 12.8895L23.2892 15.4006C23.5559 16.3558 23.6663 17.3479 23.616 18.3384L27.3755 14.4859C28.0044 13.8415 28.5002 13.0794 28.8347 12.2433C29.1691 11.4073 29.3356 10.5135 29.3246 9.61306C29.3136 8.71263 29.1253 7.82319 28.7706 6.99551C28.4159 6.16783 27.9016 5.41812 27.2571 4.7892C26.6127 4.16027 25.8506 3.66444 25.0145 3.33001C24.1785 2.99559 23.2847 2.82912 22.3843 2.84011C21.4838 2.8511 20.5944 3.03933 19.7667 3.39407C18.939 3.7488 18.1893 4.26308 17.5604 4.90754L12.7712 9.81509Z" fill="black"/>
</svg>
