<svg width="9" height="36" viewBox="0 0 9 36" fill="none" xmlns="http://www.w3.org/2000/svg">
<path fill-rule="evenodd" clip-rule="evenodd" d="M8.30769 31.8462C8.30769 32.9478 7.87006 34.0044 7.09106 34.7834C6.31206 35.5624 5.25551 36 4.15385 36C3.05218 36 1.99563 35.5624 1.21663 34.7834C0.437636 34.0044 0 32.9478 0 31.8462C0 30.7445 0.437636 29.6879 1.21663 28.9089C1.99563 28.1299 3.05218 27.6923 4.15385 27.6923C5.25551 27.6923 6.31206 28.1299 7.09106 28.9089C7.87006 29.6879 8.30769 30.7445 8.30769 31.8462ZM8.30769 18C8.30769 19.1017 7.87006 20.1582 7.09106 20.9372C6.31206 21.7162 5.25551 22.1538 4.15385 22.1538C3.05218 22.1538 1.99563 21.7162 1.21663 20.9372C0.437636 20.1582 0 19.1017 0 18C0 16.8983 0.437636 15.8418 1.21663 15.0628C1.99563 14.2838 3.05218 13.8462 4.15385 13.8462C5.25551 13.8462 6.31206 14.2838 7.09106 15.0628C7.87006 15.8418 8.30769 16.8983 8.30769 18V18ZM8.30769 4.15385C8.30769 5.25551 7.87006 6.31206 7.09106 7.09106C6.31206 7.87006 5.25551 8.30769 4.15385 8.30769C3.05218 8.30769 1.99563 7.87006 1.21663 7.09106C0.437636 6.31206 0 5.25551 0 4.15385C0 3.05218 0.437636 1.99563 1.21663 1.21663C1.99563 0.437636 3.05218 0 4.15385 0C5.25551 0 6.31206 0.437636 7.09106 1.21663C7.87006 1.99563 8.30769 3.05218 8.30769 4.15385V4.15385Z" fill="black"/>
</svg>
