<svg width="36" height="36" viewBox="0 0 36 36" fill="none" xmlns="http://www.w3.org/2000/svg">
<path fill-rule="evenodd" clip-rule="evenodd" d="M19.431 7.875C19.431 7.57663 19.3125 7.29048 19.1015 7.07951C18.8905 6.86853 18.6044 6.75 18.306 6.75H3.375C2.47989 6.75 1.62145 7.10558 0.988514 7.73851C0.355579 8.37145 0 9.22989 0 10.125L0 32.625C0 33.5201 0.355579 34.3786 0.988514 35.0115C1.62145 35.6444 2.47989 36 3.375 36H25.875C26.7701 36 27.6285 35.6444 28.2615 35.0115C28.8944 34.3786 29.25 33.5201 29.25 32.625V17.694C29.25 17.3956 29.1315 17.1095 28.9205 16.8985C28.7095 16.6875 28.4234 16.569 28.125 16.569C27.8266 16.569 27.5405 16.6875 27.3295 16.8985C27.1185 17.1095 27 17.3956 27 17.694V32.625C27 32.9234 26.8815 33.2095 26.6705 33.4205C26.4595 33.6315 26.1734 33.75 25.875 33.75H3.375C3.07663 33.75 2.79048 33.6315 2.5795 33.4205C2.36853 33.2095 2.25 32.9234 2.25 32.625V10.125C2.25 9.82663 2.36853 9.54048 2.5795 9.32951C2.79048 9.11853 3.07663 9 3.375 9H18.306C18.6044 9 18.8905 8.88147 19.1015 8.67049C19.3125 8.45952 19.431 8.17337 19.431 7.875Z" fill="black"/>
<path fill-rule="evenodd" clip-rule="evenodd" d="M36 1.125C36 0.826631 35.8815 0.540483 35.6705 0.329505C35.4595 0.118526 35.1734 0 34.875 0L23.625 0C23.3266 0 23.0405 0.118526 22.8295 0.329505C22.6185 0.540483 22.5 0.826631 22.5 1.125C22.5 1.42337 22.6185 1.70952 22.8295 1.9205C23.0405 2.13147 23.3266 2.25 23.625 2.25H32.1593L13.8285 20.5785C13.7239 20.6831 13.6409 20.8073 13.5843 20.9439C13.5277 21.0806 13.4986 21.2271 13.4986 21.375C13.4986 21.5229 13.5277 21.6694 13.5843 21.8061C13.6409 21.9427 13.7239 22.0669 13.8285 22.1715C13.9331 22.2761 14.0573 22.3591 14.1939 22.4157C14.3306 22.4723 14.4771 22.5014 14.625 22.5014C14.7729 22.5014 14.9194 22.4723 15.0561 22.4157C15.1927 22.3591 15.3169 22.2761 15.4215 22.1715L33.75 3.84075V12.375C33.75 12.6734 33.8685 12.9595 34.0795 13.1705C34.2905 13.3815 34.5766 13.5 34.875 13.5C35.1734 13.5 35.4595 13.3815 35.6705 13.1705C35.8815 12.9595 36 12.6734 36 12.375V1.125Z" fill="black"/>
</svg>
