<svg width="27" height="36" viewBox="0 0 27 36" fill="none" xmlns="http://www.w3.org/2000/svg">
<path fill-rule="evenodd" clip-rule="evenodd" d="M22.5 0H4.5C3.30653 0 2.16193 0.474106 1.31802 1.31802C0.474106 2.16193 0 3.30653 0 4.5V31.5C0 32.6935 0.474106 33.8381 1.31802 34.682C2.16193 35.5259 3.30653 36 4.5 36H22.5C23.6935 36 24.8381 35.5259 25.682 34.682C26.5259 33.8381 27 32.6935 27 31.5V4.5C27 3.30653 26.5259 2.16193 25.682 1.31802C24.8381 0.474106 23.6935 0 22.5 0V0ZM5.625 6.75C5.32663 6.75 5.04048 6.86853 4.82951 7.07951C4.61853 7.29048 4.5 7.57663 4.5 7.875C4.5 8.17337 4.61853 8.45952 4.82951 8.67049C5.04048 8.88147 5.32663 9 5.625 9H16.875C17.1734 9 17.4595 8.88147 17.6705 8.67049C17.8815 8.45952 18 8.17337 18 7.875C18 7.57663 17.8815 7.29048 17.6705 7.07951C17.4595 6.86853 17.1734 6.75 16.875 6.75H5.625ZM5.625 11.25C5.32663 11.25 5.04048 11.3685 4.82951 11.5795C4.61853 11.7905 4.5 12.0766 4.5 12.375V30.375C4.5 30.6734 4.61853 30.9595 4.82951 31.1705C5.04048 31.3815 5.32663 31.5 5.625 31.5H21.375C21.6734 31.5 21.9595 31.3815 22.1705 31.1705C22.3815 30.9595 22.5 30.6734 22.5 30.375V12.375C22.5 12.0766 22.3815 11.7905 22.1705 11.5795C21.9595 11.3685 21.6734 11.25 21.375 11.25H5.625Z" fill="black"/>
</svg>
