<svg width="24" height="23" viewBox="0 0 24 23" fill="none" xmlns="http://www.w3.org/2000/svg">
<path d="M4.2969 21.5263C4.1799 22.1923 4.83689 22.7128 5.41588 22.4158L12.0008 19.0318L18.5841 22.4158C19.1631 22.7128 19.8201 22.1923 19.7031 21.5278L18.4581 14.4329L23.7425 9.39903C24.236 8.92804 23.9795 8.06706 23.318 7.97406L15.9712 6.93008L12.6952 0.439707C12.6328 0.308143 12.5344 0.196986 12.4113 0.119152C12.2882 0.0413174 12.1456 0 12 0C11.8544 0 11.7118 0.0413174 11.5887 0.119152C11.4656 0.196986 11.3672 0.308143 11.3048 0.439707L8.02883 6.93158L0.681967 7.97556C0.0204797 8.06856 -0.236015 8.92954 0.257475 9.40053L5.54187 14.4344L4.2969 21.5293V21.5263ZM11.6543 17.3759L6.12536 20.2168L7.16634 14.2814C7.19073 14.1448 7.18119 14.0043 7.13856 13.8722C7.09593 13.7401 7.02151 13.6205 6.92185 13.524L2.56293 9.36904L8.64081 8.50505C8.76667 8.48605 8.88604 8.43682 8.98871 8.36158C9.09137 8.28635 9.17427 8.18735 9.2303 8.07306L12.0008 2.58617L14.7697 8.07306C14.8257 8.18735 14.9086 8.28635 15.0113 8.36158C15.114 8.43682 15.2333 8.48605 15.3592 8.50505L21.4371 9.36754L17.0782 13.5225C16.9781 13.6191 16.9035 13.7389 16.8609 13.8713C16.8182 14.0037 16.8089 14.1446 16.8337 14.2814L17.8746 20.2168L12.3457 17.3759C12.2388 17.3208 12.1203 17.292 12 17.292C11.8797 17.292 11.7612 17.3208 11.6543 17.3759V17.3759Z" fill="black"/>
</svg>
