<svg width="24" height="18" viewBox="0 0 24 18" fill="none" xmlns="http://www.w3.org/2000/svg">
<path fill-rule="evenodd" clip-rule="evenodd" d="M21 1.5H3C2.60218 1.5 2.22064 1.65804 1.93934 1.93934C1.65804 2.22064 1.5 2.60218 1.5 3V15C1.5 15.3978 1.65804 15.7794 1.93934 16.0607C2.22064 16.342 2.60218 16.5 3 16.5H21C21.3978 16.5 21.7794 16.342 22.0607 16.0607C22.342 15.7794 22.5 15.3978 22.5 15V3C22.5 2.60218 22.342 2.22064 22.0607 1.93934C21.7794 1.65804 21.3978 1.5 21 1.5V1.5ZM3 0C2.20435 0 1.44129 0.31607 0.87868 0.87868C0.316071 1.44129 0 2.20435 0 3L0 15C0 15.7956 0.316071 16.5587 0.87868 17.1213C1.44129 17.6839 2.20435 18 3 18H21C21.7956 18 22.5587 17.6839 23.1213 17.1213C23.6839 16.5587 24 15.7956 24 15V3C24 2.20435 23.6839 1.44129 23.1213 0.87868C22.5587 0.31607 21.7956 0 21 0H3Z" fill="black"/>
<path fill-rule="evenodd" clip-rule="evenodd" d="M9.4065 4.58248C9.52918 4.51931 9.6669 4.49121 9.80452 4.50126C9.94214 4.51132 10.0743 4.55915 10.1865 4.63948L15.4365 8.38948C15.5337 8.45886 15.613 8.55045 15.6676 8.65664C15.7223 8.76283 15.7509 8.88054 15.7509 8.99998C15.7509 9.11942 15.7223 9.23713 15.6676 9.34332C15.613 9.44951 15.5337 9.5411 15.4365 9.61048L10.1865 13.3605C10.0744 13.4407 9.94224 13.4885 9.80469 13.4986C9.66715 13.5086 9.52949 13.4806 9.40686 13.4175C9.28422 13.3544 9.18136 13.2587 9.10958 13.1409C9.03781 13.0232 8.99989 12.8879 9 12.75V5.24998C8.99986 5.1121 9.03772 4.97685 9.10943 4.8591C9.18115 4.74134 9.28393 4.64563 9.4065 4.58248V4.58248Z" fill="black"/>
</svg>
