<svg width="36" height="36" viewBox="0 0 36 36" fill="none" xmlns="http://www.w3.org/2000/svg">
<path d="M36 18C36 8.05807 27.9419 0 18 0C8.05808 0 0 8.05807 0 18C0 26.9852 6.57863 34.4317 15.189 35.7829V23.2076H10.6225V18H15.189V14.035C15.189 9.52765 17.8718 7.03232 21.9847 7.03232C23.9573 7.03232 26.0186 7.38738 26.0186 7.38738V11.8159H23.7501C21.5112 11.8159 20.8208 13.2066 20.8208 14.6268V18H25.8115L25.0126 23.2076H20.8208V35.7829C29.4214 34.4317 36 26.9852 36 18Z" fill="#1877F2"/>
<path d="M25.0027 23.2077L25.8017 18H20.811V14.6269C20.811 13.2066 21.5112 11.8159 23.7403 11.8159H26.0088V7.38745C26.0088 7.38745 23.9474 7.03238 21.9748 7.03238C17.8619 7.03238 15.1792 9.52772 15.1792 14.0351V18H10.6126V23.2077H15.1792V35.783C16.0964 35.931 17.0334 36 17.9901 36C18.9469 36 19.8838 35.9211 20.8011 35.783V23.2077H25.0027Z" fill="white"/>
</svg>
