<svg width="36" height="35" viewBox="0 0 36 35" fill="none" xmlns="http://www.w3.org/2000/svg">
<path d="M18 0.000911272C8.16328 -0.0975262 0.105469 7.79154 0 17.6283C0.0351562 25.2853 5.00625 32.0494 12.3047 34.3697C13.2047 34.5314 13.5352 33.99 13.5352 33.5189C13.5352 33.0478 13.5352 32.0001 13.5352 30.5236C8.52891 31.5853 7.46719 28.1681 7.46719 28.1681C7.13672 27.0923 6.42656 26.1783 5.47031 25.5806C3.83203 24.4978 5.60391 24.5189 5.60391 24.5189C6.75 24.6736 7.7625 25.3415 8.35313 26.3329C9.40781 28.1681 11.7352 28.815 13.5914 27.7884C13.6828 26.8954 14.0906 26.0587 14.7375 25.4329C10.7438 24.99 6.55312 23.4853 6.55312 16.7283C6.51797 14.9634 7.17188 13.2548 8.36719 11.9681C7.81875 10.4564 7.88203 8.78998 8.55 7.32044C8.55 7.32044 10.0687 6.84232 13.4578 9.12044C16.4039 8.33294 19.5117 8.33294 22.4578 9.12044C25.8961 6.84232 27.3656 7.32044 27.3656 7.32044C28.0266 8.78998 28.0898 10.4564 27.5484 11.9681C28.7789 13.2337 29.4609 14.9283 29.4609 16.7001C29.4609 23.4712 25.2422 24.9618 21.2766 25.4048C22.1555 26.2556 22.6055 27.4579 22.507 28.6744C22.507 31.0298 22.507 32.9283 22.507 33.5048C22.507 34.0743 22.8375 34.5384 23.7375 34.3556C31.0008 32.0142 35.9578 25.2712 36 17.6283C35.8945 7.79154 27.8367 -0.0975262 18 0.000911272Z" fill="#231F20"/>
</svg>
