<svg width="36" height="36" viewBox="0 0 36 36" fill="none" xmlns="http://www.w3.org/2000/svg">
<path d="M35.8992 10.5781C35.8128 8.66133 35.5031 7.34988 35.0638 6.20416C34.6029 5.02242 33.9908 4.01361 32.9898 3.01922C31.9888 2.02482 30.9878 1.39792 29.8068 0.943955C28.6617 0.497198 27.3511 0.194556 25.4355 0.108086C23.5127 0.0216173 22.9006 0 18.018 0C13.1282 0 12.5161 0.0216173 10.6005 0.108086C8.68494 0.194556 7.37428 0.504404 6.22925 0.943955C5.04101 1.40512 4.03281 2.01761 3.03901 3.01922C2.04521 4.02082 1.41869 5.02242 0.964995 6.20416C0.525707 7.34988 0.216045 8.66133 0.129628 10.5781C0.0432108 12.502 0.0216064 13.1145 0.0216064 18C0.0216064 22.8927 0.0432108 23.5052 0.129628 25.4219C0.216045 27.3387 0.525707 28.6501 0.964995 29.7958C1.42589 30.9776 2.03801 31.9864 3.03901 32.9808C4.03281 33.9824 5.04101 34.6021 6.22205 35.056C7.36707 35.5028 8.67774 35.8054 10.5933 35.8919C12.5161 35.9784 13.1282 36 18.0108 36C22.9006 36 23.5127 35.9784 25.4283 35.8919C27.3439 35.8054 28.6545 35.4956 29.7996 35.056C30.9806 34.5949 31.9888 33.9824 32.9826 32.9808C33.9764 31.9792 34.6029 30.9776 35.0566 29.7958C35.5031 28.6501 35.8056 27.3387 35.892 25.4219C35.9784 23.498 36 22.8855 36 18C36 13.1145 35.9856 12.4948 35.8992 10.5781ZM32.6657 25.2778C32.5865 27.036 32.2913 27.9944 32.0464 28.6213C31.7223 29.4572 31.3263 30.0625 30.6925 30.6966C30.0588 31.3307 29.4611 31.7126 28.6185 32.0512C27.9848 32.2962 27.027 32.5917 25.2771 32.6709C23.3831 32.7574 22.8142 32.779 18.0036 32.779C13.193 32.779 12.6241 32.7574 10.7301 32.6709C8.97299 32.5917 8.0152 32.2962 7.38868 32.0512C6.55331 31.727 5.94839 31.3307 5.31466 30.6966C4.68094 30.0625 4.29926 29.4644 3.96079 28.6213C3.71594 27.9872 3.42069 27.0288 3.34147 25.2778C3.25505 23.3827 3.23345 22.8135 3.23345 18C3.23345 13.1866 3.25505 12.6173 3.34147 10.7222C3.42069 8.96397 3.71594 8.0056 3.96079 7.3787C4.28486 6.54283 4.68094 5.93755 5.31466 5.30344C5.94839 4.66934 6.54611 4.28743 7.38868 3.94876C8.0224 3.70376 8.9802 3.40833 10.7301 3.32906C12.6241 3.24259 13.193 3.22098 18.0036 3.22098C22.8142 3.22098 23.3831 3.24259 25.2771 3.32906C27.0342 3.40833 27.992 3.70376 28.6185 3.94876C29.4539 4.27302 30.0588 4.66934 30.6925 5.30344C31.3263 5.93755 31.7079 6.53563 32.0464 7.3787C32.2913 8.01281 32.5865 8.97118 32.6657 10.7222C32.7521 12.6173 32.7738 13.1866 32.7738 18C32.7738 22.8135 32.7449 23.3827 32.6657 25.2778Z" fill="url(#paint0_linear)"/>
<path d="M18.0036 8.7478C12.8906 8.7478 8.75699 12.8911 8.75699 18C8.75699 23.1161 12.8978 27.2522 18.0036 27.2522C23.1095 27.2522 27.2503 23.1017 27.2503 18C27.2503 12.8839 23.1167 8.7478 18.0036 8.7478ZM18.0036 24.0024C14.691 24.0024 12.0048 21.3147 12.0048 18C12.0048 14.6854 14.691 11.9976 18.0036 11.9976C21.3163 11.9976 24.0024 14.6854 24.0024 18C24.0024 21.3147 21.3163 24.0024 18.0036 24.0024Z" fill="url(#paint1_linear)"/>
<path d="M27.6103 10.5493C28.8035 10.5493 29.7708 9.58143 29.7708 8.38753C29.7708 7.19364 28.8035 6.2258 27.6103 6.2258C26.4171 6.2258 25.4499 7.19364 25.4499 8.38753C25.4499 9.58143 26.4171 10.5493 27.6103 10.5493Z" fill="#BC30A0"/>
<path d="M0 18C0 22.8927 0.0216043 23.5052 0.108022 25.4219C0.194439 27.3387 0.504101 28.6501 0.943389 29.7958C1.40428 30.9776 2.0164 31.9864 3.0174 32.9808C4.0112 33.9752 5.0194 34.6021 6.20044 35.056C7.34547 35.5028 8.65613 35.8054 10.5717 35.8919C12.4945 35.9784 13.1066 36 17.9892 36C22.879 36 23.4911 35.9784 25.4067 35.8919C27.3223 35.8054 28.6329 35.4956 29.778 35.056C30.959 34.5949 31.9672 33.9824 32.961 32.9808C33.9548 31.9864 34.5813 30.9776 35.035 29.7958C35.4815 28.6501 35.784 27.3387 35.8704 25.4219C35.9568 23.498 35.9784 22.8855 35.9784 18C35.9784 13.1073 35.9568 12.4948 35.8704 10.5781C35.784 8.66133 35.4743 7.34988 35.035 6.20416C34.5741 5.02242 33.962 4.01361 32.961 3.01922C31.9744 2.01761 30.9662 1.39792 29.7852 0.943955C28.6401 0.497198 27.3295 0.194556 25.4139 0.108086C23.4911 0.0216173 22.879 0 17.9964 0C13.1066 0 12.4945 0.0216173 10.5789 0.108086C8.66333 0.194556 7.35267 0.504404 6.20764 0.943955C5.0266 1.40512 4.0184 2.01761 3.0246 3.01922C2.03081 4.02082 1.40428 5.02242 0.95059 6.20416C0.504101 7.34988 0.194439 8.66133 0.108022 10.5781C0.0216043 12.4948 0 13.1073 0 18ZM3.24785 18C3.24785 13.1938 3.26945 12.6173 3.35587 10.7222C3.43509 8.96397 3.73035 8.0056 3.97519 7.3787C4.29926 6.54283 4.69534 5.93755 5.32907 5.30344C5.96279 4.66934 6.56051 4.28743 7.40308 3.94876C8.03681 3.70376 8.9946 3.40833 10.7445 3.32906C12.6385 3.24259 13.2074 3.22098 18.018 3.22098C22.8286 3.22098 23.3975 3.24259 25.2915 3.32906C27.0486 3.40833 28.0064 3.70376 28.6329 3.94876C29.4683 4.27302 30.0732 4.66934 30.7069 5.30344C31.3407 5.93755 31.7223 6.53563 32.0608 7.3787C32.3057 8.01281 32.6009 8.97118 32.6801 10.7222C32.7666 12.6173 32.7882 13.1866 32.7882 18C32.7882 22.8135 32.7666 23.3827 32.6801 25.2778C32.6009 27.036 32.3057 27.9944 32.0608 28.6213C31.7367 29.4572 31.3407 30.0625 30.7069 30.6966C30.0732 31.3307 29.4755 31.7126 28.6329 32.0512C27.9992 32.2962 27.0414 32.5917 25.2915 32.6709C23.3975 32.7574 22.8286 32.779 18.018 32.779C13.2074 32.779 12.6385 32.7574 10.7445 32.6709C8.9874 32.5917 8.02961 32.2962 7.40308 32.0512C6.56771 31.727 5.96279 31.3307 5.32907 30.6966C4.69534 30.0625 4.31366 29.4644 3.97519 28.6213C3.73035 27.9872 3.43509 27.0288 3.35587 25.2778C3.26225 23.3827 3.24785 22.8062 3.24785 18Z" fill="url(#paint2_linear)"/>
<defs>
<linearGradient id="paint0_linear" x1="30.4432" y1="2.7528" x2="4.39955" y2="34.6614" gradientUnits="userSpaceOnUse">
<stop stop-color="#AE3DAE"/>
<stop offset="0.0468721" stop-color="#B23BA6"/>
<stop offset="0.1216" stop-color="#BD368E"/>
<stop offset="0.2148" stop-color="#CE2E69"/>
<stop offset="0.3216" stop-color="#E62335"/>
<stop offset="0.418" stop-color="#FF1800"/>
</linearGradient>
<linearGradient id="paint1_linear" x1="22.4134" y1="10.5793" x2="12.9524" y2="26.4771" gradientUnits="userSpaceOnUse">
<stop stop-color="#E12F6A"/>
<stop offset="0.1705" stop-color="#EA3751"/>
<stop offset="0.3563" stop-color="#F13D3E"/>
<stop offset="0.5467" stop-color="#F64133"/>
<stop offset="0.7469" stop-color="#F7422F"/>
<stop offset="0.7946" stop-color="#F74C2F"/>
<stop offset="0.8743" stop-color="#F7652F"/>
<stop offset="0.9757" stop-color="#F78F2E"/>
<stop offset="1" stop-color="#F79A2E"/>
</linearGradient>
<linearGradient id="paint2_linear" x1="26.1571" y1="-1.48205" x2="10.2208" y2="36.5045" gradientUnits="userSpaceOnUse">
<stop offset="0.2341" stop-color="#9E35A5" stop-opacity="0"/>
<stop offset="0.4512" stop-color="#D42F7F" stop-opacity="0.5"/>
<stop offset="0.7524" stop-color="#F7772E"/>
<stop offset="0.9624" stop-color="#FEF780"/>
</linearGradient>
</defs>
</svg>
