<svg width="37" height="37" viewBox="0 0 37 37" fill="none" xmlns="http://www.w3.org/2000/svg">
<path d="M36.5 31.5C36.5 34.262 34.262 36.5 31.5 36.5H5.5C2.739 36.5 0.5 34.262 0.5 31.5V5.5C0.5 2.738 2.739 0.5 5.5 0.5H31.5C34.262 0.5 36.5 2.738 36.5 5.5V31.5Z" fill="#0078D4"/>
<path opacity="0.05" d="M24.5 31.5V21.401C24.5 19.712 23.681 18.703 22.308 18.703C21.493 18.703 20.894 19.162 20.529 20.067C20.512 20.131 20.488 20.392 20.498 21.181L20.5 31.5H13.5V12.5H20.5V13.561C21.522 12.856 22.775 12.5 24.238 12.5C28.785 12.5 31.499 15.593 31.499 20.774L31.5 31.5H24.5ZM5.5 31.5V12.5H8.957C6.954 12.5 5.5 11.028 5.5 8.999C5.5 6.972 6.978 5.5 9.014 5.5C11.026 5.5 12.459 6.931 12.5 8.979C12.5 11.023 11.021 12.5 8.985 12.5H12.5V31.5H5.5Z" fill="black"/>
<path opacity="0.07" d="M25 31V21.401C25 19.428 23.969 18.203 22.308 18.203C21.013 18.203 20.373 19.115 20.065 19.88C19.983 20.079 19.994 20.869 19.998 21.206L20 31H14V13H20V14.638C20.795 13.815 22.075 13 24.238 13C28.471 13 30.999 15.906 30.999 20.774L31 31H25ZM6 31V13H12V31H6ZM8.957 12C7.244 12 6 10.738 6 8.999C6 7.261 7.268 6 9.014 6C10.738 6 11.965 7.229 12 8.989C12 10.738 10.732 12 8.985 12H8.957Z" fill="black"/>
<path d="M6.5 13.5H11.5V30.5H6.5V13.5ZM8.985 11.5H8.957C7.465 11.5 6.5 10.388 6.5 8.999C6.5 7.58 7.495 6.5 9.014 6.5C10.535 6.5 11.472 7.58 11.5 8.999C11.5 10.387 10.535 11.5 8.985 11.5ZM30.5 30.5H25.5V21.401C25.5 19.203 24.275 17.703 22.308 17.703C20.807 17.703 19.995 18.715 19.601 19.693C19.457 20.043 19.5 21.011 19.5 21.5V30.5H14.5V13.5H19.5V16.116C20.221 15 21.35 13.5 24.238 13.5C27.816 13.5 30.499 15.75 30.499 20.774L30.5 30.5Z" fill="white"/>
</svg>
