<svg width="96" height="96" viewBox="0 0 96 96" fill="none" xmlns="http://www.w3.org/2000/svg">
<path d="M80.808 74.22C76.548 67.356 67.17 60 48 60C28.83 60 19.458 67.35 15.192 74.22C19.1225 79.1474 24.1135 83.1252 29.7937 85.8572C35.4738 88.5893 41.6969 90.0053 48 90C54.303 90.0053 60.5261 88.5893 66.2063 85.8572C71.8865 83.1252 76.8775 79.1474 80.808 74.22V74.22Z" fill="#070247"/>
<path fill-rule="evenodd" clip-rule="evenodd" d="M48 54C52.7739 54 57.3523 52.1036 60.7279 48.7279C64.1036 45.3523 66 40.7739 66 36C66 31.2261 64.1036 26.6477 60.7279 23.2721C57.3523 19.8964 52.7739 18 48 18C43.2261 18 38.6477 19.8964 35.2721 23.2721C31.8964 26.6477 30 31.2261 30 36C30 40.7739 31.8964 45.3523 35.2721 48.7279C38.6477 52.1036 43.2261 54 48 54V54Z" fill="#070247"/>
<path fill-rule="evenodd" clip-rule="evenodd" d="M48 6C36.8609 6 26.178 10.425 18.3015 18.3015C10.425 26.178 6 36.8609 6 48C6 59.1391 10.425 69.822 18.3015 77.6985C26.178 85.575 36.8609 90 48 90C59.1391 90 69.822 85.575 77.6985 77.6985C85.575 69.822 90 59.1391 90 48C90 36.8609 85.575 26.178 77.6985 18.3015C69.822 10.425 59.1391 6 48 6V6ZM0 48C0 35.2696 5.05713 23.0606 14.0589 14.0589C23.0606 5.05713 35.2696 0 48 0C60.7304 0 72.9394 5.05713 81.9411 14.0589C90.9429 23.0606 96 35.2696 96 48C96 60.7304 90.9429 72.9394 81.9411 81.9411C72.9394 90.9429 60.7304 96 48 96C35.2696 96 23.0606 90.9429 14.0589 81.9411C5.05713 72.9394 0 60.7304 0 48V48Z" fill="#070247"/>
</svg>
