<svg width="215" height="69" viewBox="0 0 215 69" fill="none" xmlns="http://www.w3.org/2000/svg">
<path d="M92.7324 35.085C92.7324 39.1051 91.8128 42.3441 89.9736 44.8018C88.1344 47.2594 85.6442 48.4883 82.5029 48.4883C79.2965 48.4883 76.7738 47.471 74.9346 45.4365V58.1562H70.418V21.584H74.5439L74.7637 24.5137C76.6029 22.235 79.1582 21.0957 82.4297 21.0957C85.6035 21.0957 88.11 22.292 89.9492 24.6846C91.8047 27.0771 92.7324 30.4056 92.7324 34.6699V35.085ZM88.2158 34.5723C88.2158 31.5938 87.5811 29.2419 86.3115 27.5166C85.042 25.7913 83.3005 24.9287 81.0869 24.9287C78.3525 24.9287 76.3018 26.1413 74.9346 28.5664V41.1885C76.2855 43.5973 78.3525 44.8018 81.1357 44.8018C83.3005 44.8018 85.0176 43.9473 86.2871 42.2383C87.5729 40.513 88.2158 37.9577 88.2158 34.5723ZM111.263 25.6367C110.579 25.5228 109.839 25.4658 109.041 25.4658C106.079 25.4658 104.069 26.7272 103.011 29.25V48H98.4941V21.584H102.889L102.962 24.6357C104.443 22.2757 106.543 21.0957 109.261 21.0957C110.14 21.0957 110.807 21.2096 111.263 21.4375V25.6367ZM131.941 14.333C129.923 14.0075 128.296 13.8447 127.059 13.8447C123.803 13.8447 122.176 15.5537 122.176 18.9717V21.584H127.815V25.0752H122.176V48H117.659V25.0752H113.484V21.584H117.659V18.7031C117.675 15.8874 118.465 13.7308 120.027 12.2334C121.59 10.736 123.812 9.9873 126.692 9.9873C128.336 9.9873 131.591 10.4837 136.458 11.4766V48H131.941V14.333ZM143.953 45.6318C143.953 44.8506 144.181 44.1995 144.637 43.6787C145.109 43.1579 145.809 42.8975 146.736 42.8975C147.664 42.8975 148.364 43.1579 148.836 43.6787C149.324 44.1995 149.568 44.8506 149.568 45.6318C149.568 46.3805 149.324 47.0072 148.836 47.5117C148.364 48.0163 147.664 48.2686 146.736 48.2686C145.809 48.2686 145.109 48.0163 144.637 47.5117C144.181 47.0072 143.953 46.3805 143.953 45.6318ZM155.965 34.5723C155.965 30.4544 156.917 27.1829 158.821 24.7578C160.726 22.3164 163.248 21.0957 166.39 21.0957C169.612 21.0957 172.127 22.235 173.934 24.5137L174.153 21.584H178.279V47.3652C178.279 50.7832 177.262 53.4769 175.228 55.4463C173.209 57.4157 170.491 58.4004 167.073 58.4004C165.169 58.4004 163.305 57.9935 161.482 57.1797C159.66 56.3659 158.268 55.251 157.308 53.835L159.651 51.125C161.588 53.5176 163.956 54.7139 166.756 54.7139C168.953 54.7139 170.662 54.0954 171.883 52.8584C173.12 51.6214 173.738 49.8799 173.738 47.6338V45.3633C171.932 47.4466 169.466 48.4883 166.341 48.4883C163.248 48.4883 160.742 47.2432 158.821 44.7529C156.917 42.2627 155.965 38.8691 155.965 34.5723ZM160.506 35.085C160.506 38.0635 161.116 40.4072 162.337 42.1162C163.558 43.8089 165.267 44.6553 167.464 44.6553C170.312 44.6553 172.404 43.3613 173.738 40.7734V28.7129C172.355 26.1901 170.28 24.9287 167.513 24.9287C165.315 24.9287 163.598 25.7832 162.361 27.4922C161.124 29.2012 160.506 31.7321 160.506 35.085ZM201.424 48C201.163 47.4792 200.952 46.5514 200.789 45.2168C198.689 47.3978 196.183 48.4883 193.27 48.4883C190.665 48.4883 188.525 47.7559 186.849 46.291C185.188 44.8099 184.358 42.9382 184.358 40.6758C184.358 37.9251 185.4 35.793 187.483 34.2793C189.583 32.7493 192.529 31.9844 196.321 31.9844H200.716V29.9092C200.716 28.3304 200.244 27.0771 199.3 26.1494C198.356 25.2054 196.964 24.7334 195.125 24.7334C193.514 24.7334 192.163 25.1403 191.072 25.9541C189.982 26.7679 189.437 27.7526 189.437 28.9082H184.896C184.896 27.5898 185.359 26.3203 186.287 25.0996C187.231 23.8626 188.501 22.8861 190.096 22.1699C191.707 21.4538 193.473 21.0957 195.394 21.0957C198.437 21.0957 200.822 21.8607 202.547 23.3906C204.272 24.9043 205.167 26.9958 205.232 29.665V41.8232C205.232 44.2484 205.542 46.1771 206.16 47.6094V48H201.424ZM193.929 44.5576C195.345 44.5576 196.688 44.1914 197.957 43.459C199.227 42.7266 200.146 41.7744 200.716 40.6025V35.1826H197.176C191.642 35.1826 188.875 36.8021 188.875 40.041C188.875 41.457 189.347 42.5638 190.291 43.3613C191.235 44.1589 192.448 44.5576 193.929 44.5576Z" fill="#070247"/>
<circle cx="43.1093" cy="12.3012" r="11.3012" fill="#070247"/>
<path d="M62 47.6938V29.4526C62 25.1382 58.5789 21.601 54.2669 21.457L51.6466 21.3696C51.4064 21.3616 51.1713 21.4403 50.9844 21.5915L49.9462 22.4312L49.051 23.0917C49.001 23.1286 48.9476 23.1608 48.8916 23.1878L47.6738 23.7749C47.6225 23.7996 47.5693 23.8199 47.5146 23.8356L45.8803 24.3031C45.348 24.4555 45.0407 25.0114 45.195 25.5432L50.0191 42.1701C50.2974 43.1292 50.0802 44.1639 49.4397 44.9302L45.2916 49.8924C44.0958 51.323 41.8985 51.3277 40.6965 49.9024L36.5044 44.9313C35.8579 44.1648 35.6372 43.126 35.9161 42.1628L40.7262 25.5525C40.8813 25.0171 40.5686 24.4582 40.0312 24.3102L39.048 24.0395C38.9928 24.0243 38.939 24.0044 38.8872 23.98L37.2285 23.1983L35.5941 22.2777L35.033 21.8915C34.8662 21.7766 34.6685 21.7152 34.4659 21.7152H32C27.5817 21.7152 24 25.2975 24 29.7157V47.691C24 48.5198 24.3428 49.3144 24.9472 49.8814L40.9472 64.8952C42.1014 65.9783 43.8986 65.9783 45.0528 64.8952L61.0528 49.8814C61.6572 49.3144 62 48.5225 62 47.6938Z" fill="#070247"/>
</svg>
