<svg width="36" height="30" viewBox="0 0 36 30" fill="none" xmlns="http://www.w3.org/2000/svg">
<path fill-rule="evenodd" clip-rule="evenodd" d="M36 3.46505C34.6786 4.05545 33.2519 4.44904 31.7618 4.62476C33.287 3.71105 34.4537 2.26318 35.009 0.541195C33.5822 1.39164 32.0008 2.00312 30.321 2.33346C28.9715 0.899648 27.0527 0 24.9301 0C20.8536 0 17.5431 3.3034 17.5431 7.37993C17.5431 7.95627 17.6064 8.52558 17.7329 9.05974C11.597 8.75049 6.15697 5.81257 2.5162 1.34244C1.88364 2.43186 1.51816 3.70402 1.51816 5.05349C1.51816 7.61187 2.81843 9.87505 4.80047 11.1964C3.59157 11.1542 2.45295 10.8239 1.4549 10.2757V10.367C1.4549 13.9446 3.99922 16.9317 7.37993 17.6064C6.76142 17.7751 6.10777 17.8665 5.43303 17.8665C4.9551 17.8665 4.49121 17.8173 4.04139 17.7329C4.98321 20.6638 7.71027 22.8005 10.9364 22.8637C8.40609 24.8458 5.22218 26.0195 1.76415 26.0195C1.16673 26.0195 0.576337 25.9844 0 25.9211C3.26825 28.0156 7.14799 29.2386 11.3159 29.2386C24.895 29.2386 32.3241 17.9859 32.3241 8.23038C32.3241 7.90707 32.3171 7.59078 32.303 7.2745C33.7579 6.24834 35.009 4.94807 36 3.46505Z" fill="#1DA1F2"/>
</svg>
